<svg xmlns="http://www.w3.org/2000/svg" width="24" height="24" viewBox="0 0 24 24" fill="none" stroke="currentColor" stroke-width="2" stroke-linecap="round" stroke-linejoin="round">
  <path d="M12.2 12H7.8C7.3 12 7 11.7 7 11.2V7.8C7 7.3 7.3 7 7.8 7H12.2C12.7 7 13 7.3 13 7.8V11.2C13 11.7 12.7 12 12.2 12Z" />
  <path d="M16.2 12H11.8C11.3 12 11 11.7 11 11.2V7.8C11 7.3 11.3 7 11.8 7H16.2C16.7 7 17 7.3 17 7.8V11.2C17 11.7 16.7 12 16.2 12Z" />
  <path d="M12.2 17H7.8C7.3 17 7 16.7 7 16.2V12.8C7 12.3 7.3 12 7.8 12H12.2C12.7 12 13 12.3 13 12.8V16.2C13 16.7 12.7 17 12.2 17Z" />
  <path d="M16.2 17H11.8C11.3 17 11 16.7 11 16.2V12.8C11 12.3 11.3 12 11.8 12H16.2C16.7 12 17 12.3 17 12.8V16.2C17 16.7 16.7 17 16.2 17Z" />
</svg>